<?xml version="1.0" encoding="utf-8"?>
<!-- Generator: Adobe Illustrator 16.0.0, SVG Export Plug-In . SVG Version: 6.00 Build 0)  -->
<!DOCTYPE svg PUBLIC "-//W3C//DTD SVG 1.1//EN" "http://www.w3.org/Graphics/SVG/1.1/DTD/svg11.dtd">
<svg version="1.1" id="Layer_1" xmlns="http://www.w3.org/2000/svg" xmlns:xlink="http://www.w3.org/1999/xlink" x="0px" y="0px"
	 width="256px" height="256px" viewBox="0 0 256 256" enable-background="new 0 0 256 256" xml:space="preserve">
<rect fill="#BF0A0A" width="256" height="256"/>
<g>
	<g>
		<path fill="#FFFFFF" d="M41.749,116.878l3.459,3.415c0,0-3.978,5.144-11.629,5.144c-8.73,0-15.344-6.7-15.344-15.648
			c0-8.947,6.614-15.646,15.344-15.646c7.263,0,11.197,4.753,11.197,4.753l-3.501,3.415c0,0-2.723-3.329-7.695-3.329
			c-5.964,0-10.071,4.972-10.071,10.807c0,5.836,4.106,10.806,10.071,10.806C38.896,120.595,41.749,116.878,41.749,116.878z"/>
		<path fill="#FFFFFF" d="M68.158,104.429v20.49h-4.799v-2.682c0,0-1.772,3.2-6.181,3.2c-5.316,0-9.985-4.452-9.985-10.764
			c0-6.31,4.669-10.762,9.985-10.762c4.279,0,6.181,3.198,6.181,3.198v-2.68H68.158z M62.969,111.604c0,0-1.513-2.851-4.841-2.851
			c-3.502,0-5.661,2.549-5.661,5.92c0,3.373,2.159,5.922,5.661,5.922c3.329,0,4.841-2.853,4.841-2.853V111.604z"/>
		<path fill="#FFFFFF" d="M74.94,117.958c0,0,2.726,2.938,6.182,2.938c2.119,0,3.892-0.604,3.892-1.857
			c0-1.34-0.953-1.598-4.064-2.248c-4.063-0.864-7.608-2.593-7.608-6.483c0-3.2,3.198-6.397,8.819-6.397
			c4.625,0,7.695,2.506,7.695,2.506l-2.595,3.804c0,0-2.334-1.772-5.1-1.772c-1.946,0-3.718,0.691-3.718,1.946
			c0,1.253,1.382,1.556,4.841,2.29c4.063,0.865,6.958,2.204,6.958,6.44c0,3.501-3.715,6.312-8.946,6.312
			c-6.008,0-9.251-3.718-9.251-3.718L74.94,117.958z"/>
		<path fill="#FFFFFF" d="M97.633,94.4c1.901,0,3.415,1.514,3.415,3.415c0,1.903-1.513,3.417-3.415,3.417
			c-1.903,0-3.416-1.514-3.416-3.417C94.217,95.914,95.73,94.4,97.633,94.4z M95.039,104.429h5.186v20.49h-5.186V104.429z"/>
		<path fill="#FFFFFF" d="M124.734,111.648v13.271h-5.187v-11.974c0-2.94-1.815-4.192-4.064-4.192c-2.68,0-4.063,2.635-4.063,2.635
			v13.532h-5.186v-20.49h4.839v2.983c0,0,1.817-3.5,6.139-3.5C121.189,103.911,124.734,106.719,124.734,111.648z"/>
		<path fill="#FFFFFF" d="M150.41,114.673c0,6.008-4.843,10.764-10.939,10.764c-6.095,0-10.937-4.756-10.937-10.764
			c0-6.051,4.842-10.762,10.937-10.762C145.567,103.911,150.41,108.622,150.41,114.673z M145.135,114.673
			c0-3.198-2.161-5.92-5.664-5.92c-3.5,0-5.661,2.722-5.661,5.92c0,3.199,2.161,5.922,5.661,5.922
			C142.974,120.595,145.135,117.872,145.135,114.673z"/>
		<path fill="#FFFFFF" d="M176.601,116.878l3.46,3.415c0,0-3.977,5.144-11.63,5.144c-8.732,0-15.345-6.7-15.345-15.648
			c0-8.947,6.612-15.646,15.345-15.646c7.26,0,11.198,4.753,11.198,4.753l-3.505,3.415c0,0-2.721-3.329-7.693-3.329
			c-5.967,0-10.069,4.972-10.069,10.807c0,5.836,4.103,10.806,10.069,10.806C173.746,120.595,176.601,116.878,176.601,116.878z"/>
		<path fill="#FFFFFF" d="M203.915,114.673c0,6.008-4.838,10.764-10.938,10.764c-6.093,0-10.935-4.756-10.935-10.764
			c0-6.051,4.842-10.762,10.935-10.762C199.077,103.911,203.915,108.622,203.915,114.673z M198.645,114.673
			c0-3.198-2.162-5.92-5.667-5.92c-3.498,0-5.659,2.722-5.659,5.92c0,3.199,2.161,5.922,5.659,5.922
			C196.482,120.595,198.645,117.872,198.645,114.673z"/>
		<path fill="#FFFFFF" d="M211.132,94.4c1.905,0,3.414,1.514,3.414,3.415c0,1.903-1.509,3.417-3.414,3.417
			c-1.901,0-3.415-1.514-3.415-3.417C207.717,95.914,209.23,94.4,211.132,94.4z M208.537,104.429h5.189v20.49h-5.189V104.429z"/>
		<path fill="#FFFFFF" d="M238.234,111.648v13.271h-5.188v-11.974c0-2.94-1.816-4.192-4.063-4.192c-2.681,0-4.062,2.635-4.062,2.635
			v13.532h-5.19v-20.49h4.842v2.983c0,0,1.815-3.5,6.14-3.5C234.689,103.911,238.234,106.719,238.234,111.648z"/>
	</g>
	<g>
		<path fill="#FFFFFF" d="M59.198,137.413h6.082c4.909,0,8.034,2.585,8.034,7.09c0,4.504-3.125,7.091-8.034,7.091h-3.258v9.346
			h-2.824V137.413z M65.115,148.903c3.192,0,5.379-1.406,5.379-4.4c0-2.987-2.188-4.4-5.379-4.4h-3.092v8.801H65.115z"/>
		<path fill="#FFFFFF" d="M90.623,145.412v15.527h-2.587v-2.25c0,0-1.513,2.652-5.311,2.652c-4.132,0-7.463-3.593-7.463-8.166
			c0-4.57,3.331-8.167,7.463-8.167c3.798,0,5.311,2.655,5.311,2.655v-2.252H90.623z M87.8,150.246c0,0-1.51-2.613-4.537-2.613
			c-3.159,0-5.176,2.482-5.176,5.543c0,3.059,2.017,5.546,5.176,5.546c3.027,0,4.537-2.623,4.537-2.623V150.246z"/>
		<path fill="#FFFFFF" d="M94.891,165.645c0,0,0.978,0.809,1.85,0.809c1.242,0,1.817-0.873,2.42-2.391l1.211-3.058l-7.262-15.593
			h3.192l5.445,12.268l4.639-12.268h3.057c0,0-7.794,19.629-8.167,20.533c-0.905,2.254-2.654,3.129-4.303,3.129
			c-1.912,0-3.29-1.11-3.29-1.11L94.891,165.645z"/>
		<path fill="#FFFFFF" d="M133.509,150.957v9.982h-2.824v-9.547c0-2.521-1.306-3.76-3.326-3.76c-2.317,0-3.325,2.482-3.325,2.482
			v10.824h-2.822v-9.547c0-2.521-1.315-3.76-3.331-3.76c-2.282,0-3.326,2.482-3.326,2.482v10.824h-2.826v-15.527h2.622v2.287
			c0,0,1.144-2.69,4.304-2.69c3.862,0,4.841,2.891,4.841,2.891s1.241-2.891,4.634-2.891
			C131.357,145.009,133.509,147.127,133.509,150.957z"/>
		<path fill="#FFFFFF" d="M152.06,153.272c0,0.306,0,0.539-0.031,0.913h-12.535c0.173,2.353,2.422,4.536,5.342,4.536
			c3.063,0,4.677-2.286,4.677-2.286l1.778,1.852c0,0-2.354,3.055-6.455,3.055c-4.707,0-8.099-3.563-8.099-8.166
			c0-4.541,3.094-8.167,7.766-8.167C148.839,145.009,152.06,148.269,152.06,153.272z M149.312,151.834
			c-0.104-1.751-1.684-4.201-4.81-4.201c-3.364,0-4.738,2.586-4.939,4.201H149.312z"/>
		<path fill="#FFFFFF" d="M168.533,150.957v9.982h-2.823v-9.512c0-2.659-1.652-3.795-3.734-3.795c-2.52,0-3.863,2.613-3.863,2.613
			v10.693h-2.823v-15.527h2.623v2.182c0,0,1.412-2.585,4.771-2.585C165.776,145.009,168.533,147.127,168.533,150.957z"/>
		<path fill="#FFFFFF" d="M171.49,145.412h3.021v-4.742h2.826v4.742h4.842v2.557h-4.842v8.369c0,1.509,0.739,2.384,2.255,2.384
			c0.874,0,1.778-0.636,1.778-0.636l1.048,2.315c-1.348,0.738-2.326,0.94-3.229,0.94c-2.221,0-4.679-1.441-4.679-4.869v-8.504
			h-3.021V145.412z"/>
		<path fill="#FFFFFF" d="M186.405,156.268c0,0,1.657,2.521,4.709,2.521c1.583,0,3.361-0.674,3.361-1.913
			c0-1.347-1.136-2.016-3.529-2.488c-3.33-0.674-5.677-1.988-5.677-4.908c0-2.247,2.254-4.47,5.71-4.47
			c3.674,0,5.75,2.354,5.75,2.354l-1.849,1.917c0,0-1.541-1.717-3.901-1.717c-1.977,0-2.96,0.972-2.96,1.983
			c0,1.173,1.212,1.815,3.766,2.353c2.959,0.635,5.483,1.748,5.483,4.907c0,2.992-3.152,4.536-6.154,4.536
			c-4.365,0-6.648-3.256-6.648-3.256L186.405,156.268z"/>
	</g>
</g>
</svg>
